<svg viewBox="0 0 900 300" fill="none" stroke="white" stroke-linecap="round" stroke-linejoin="round" xmlns="http://www.w3.org/2000/svg">
  <!-- Ground line -->
  <line x1="10" y1="268" x2="890" y2="268" stroke-width="2.5"/>

  <!-- Wide base platform -->
  <rect x="90" y="238" width="720" height="30" stroke-width="1.5"/>

  <!-- Steps center -->
  <rect x="402" y="224" width="96" height="14" stroke-width="1"/>
  <rect x="416" y="212" width="68" height="12" stroke-width="1"/>

  <!-- Upper overhang beam separating colonnade from upper box -->
  <rect x="95" y="148" width="710" height="13" stroke-width="2"/>

  <!-- Columns in colonnade - left group -->
  <line x1="118" y1="161" x2="118" y2="238" stroke-width="1.5"/>
  <line x1="188" y1="161" x2="188" y2="238" stroke-width="1.5"/>
  <line x1="258" y1="161" x2="258" y2="238" stroke-width="1.5"/>
  <line x1="328" y1="161" x2="328" y2="238" stroke-width="1.5"/>

  <!-- Columns right group -->
  <line x1="572" y1="161" x2="572" y2="238" stroke-width="1.5"/>
  <line x1="642" y1="161" x2="642" y2="238" stroke-width="1.5"/>
  <line x1="712" y1="161" x2="712" y2="238" stroke-width="1.5"/>
  <line x1="782" y1="161" x2="782" y2="238" stroke-width="1.5"/>

  <!-- Upper curtain-wall box -->
  <rect x="95" y="55" width="710" height="93" stroke-width="2"/>

  <!-- Flat roof overhang (slightly wider) -->
  <rect x="86" y="43" width="728" height="13" stroke-width="2.5"/>

  <!-- Curtain wall vertical mullions (8 dividers = 9 bays) -->
  <line x1="174" y1="55" x2="174" y2="148" stroke-width="1"/>
  <line x1="253" y1="55" x2="253" y2="148" stroke-width="1"/>
  <line x1="332" y1="55" x2="332" y2="148" stroke-width="1"/>
  <line x1="411" y1="55" x2="411" y2="148" stroke-width="1"/>
  <line x1="490" y1="55" x2="490" y2="148" stroke-width="1"/>
  <line x1="569" y1="55" x2="569" y2="148" stroke-width="1"/>
  <line x1="648" y1="55" x2="648" y2="148" stroke-width="1"/>
  <line x1="727" y1="55" x2="727" y2="148" stroke-width="1"/>

  <!-- Horizontal mid-rail in curtain wall -->
  <line x1="95" y1="101" x2="805" y2="101" stroke-width="0.8" stroke-opacity="0.7"/>

  <!-- Tree left (organic cloud) -->
  <path d="M25 188 Q12 172 22 158 Q16 142 33 138 Q38 122 57 126 Q67 112 83 120 Q97 108 103 124 Q115 120 114 137 Q122 143 117 158 Q124 172 111 184 Q100 196 83 196 Q67 200 51 196 Q34 200 25 188Z" stroke-width="1" stroke-opacity="0.8"/>
  <line x1="68" y1="196" x2="68" y2="238" stroke-width="1.5"/>

  <!-- Tree right -->
  <path d="M797 188 Q784 172 794 158 Q788 142 805 138 Q810 122 829 126 Q839 112 855 120 Q869 108 875 124 Q887 120 886 137 Q894 143 889 158 Q896 172 883 184 Q872 196 855 196 Q839 200 823 196 Q806 200 797 188Z" stroke-width="1" stroke-opacity="0.8"/>
  <line x1="840" y1="196" x2="840" y2="238" stroke-width="1.5"/>
</svg>
